<svg width="24" height="24" viewBox="0 0 24 24" fill="none" xmlns="http://www.w3.org/2000/svg">
<path d="M3.99889 11C4.25377 11.0003 4.49892 11.0979 4.68426 11.2728C4.8696 11.4478 4.98113 11.687 4.99606 11.9414C5.011 12.1958 4.92822 12.4464 4.76463 12.6418C4.60104 12.8373 4.36899 12.9629 4.11589 12.993L3.99889 13H2.99889C2.74401 12.9997 2.49886 12.9021 2.31352 12.7272C2.12819 12.5522 2.01666 12.313 2.00172 12.0586C1.98678 11.8042 2.06957 11.5536 2.23316 11.3582C2.39675 11.1627 2.6288 11.0371 2.88189 11.007L2.99889 11H3.99889ZM11.9989 2C12.2438 2.00003 12.4802 2.08996 12.6633 2.25272C12.8463 2.41547 12.9632 2.63975 12.9919 2.883L12.9989 3V4C12.9986 4.25488 12.901 4.50003 12.726 4.68537C12.5511 4.8707 12.3119 4.98223 12.0575 4.99717C11.8031 5.01211 11.5525 4.92933 11.3571 4.76574C11.1616 4.60214 11.036 4.3701 11.0059 4.117L10.9989 4V3C10.9989 2.73478 11.1042 2.48043 11.2918 2.29289C11.4793 2.10536 11.7337 2 11.9989 2ZM20.9989 11C21.2538 11.0003 21.4989 11.0979 21.6843 11.2728C21.8696 11.4478 21.9811 11.687 21.9961 11.9414C22.011 12.1958 21.9282 12.4464 21.7646 12.6418C21.601 12.8373 21.369 12.9629 21.1159 12.993L20.9989 13H19.9989C19.744 12.9997 19.4989 12.9021 19.3135 12.7272C19.1282 12.5522 19.0167 12.313 19.0017 12.0586C18.9868 11.8042 19.0696 11.5536 19.2332 11.3582C19.3967 11.1627 19.6288 11.0371 19.8819 11.007L19.9989 11H20.9989ZM4.89189 4.893C5.06409 4.72082 5.29318 4.61739 5.53621 4.60211C5.77924 4.58683 6.01949 4.66075 6.21189 4.81L6.30589 4.893L7.00589 5.593C7.18524 5.77296 7.28937 6.01443 7.29712 6.26838C7.30488 6.52233 7.21568 6.76971 7.04764 6.96028C6.87961 7.15084 6.64534 7.27031 6.39242 7.2944C6.13949 7.31849 5.88688 7.24541 5.68589 7.09L5.59189 7.007L4.89189 6.307C4.70442 6.11947 4.59911 5.86516 4.59911 5.6C4.59911 5.33484 4.70442 5.08053 4.89189 4.893ZM17.6919 4.893C17.8719 4.71365 18.1133 4.60953 18.3673 4.60177C18.6212 4.59402 18.8686 4.68322 19.0592 4.85125C19.2497 5.01928 19.3692 5.25355 19.3933 5.50647C19.4174 5.7594 19.3443 6.01201 19.1889 6.213L19.1059 6.307L18.4059 7.007C18.2259 7.18635 17.9845 7.29047 17.7305 7.29823C17.4766 7.30598 17.2292 7.21678 17.0386 7.04875C16.848 6.88072 16.7286 6.64645 16.7045 6.39353C16.6804 6.1406 16.7535 5.88799 16.9089 5.687L16.9919 5.593L17.6919 4.893ZM13.9989 18C14.2641 18 14.5185 18.1054 14.706 18.2929C14.8935 18.4804 14.9989 18.7348 14.9989 19C14.9989 19.7956 14.6828 20.5587 14.1202 21.1213C13.5576 21.6839 12.7945 22 11.9989 22C11.2032 22 10.4402 21.6839 9.87757 21.1213C9.31496 20.5587 8.99889 19.7956 8.99889 19C8.99892 18.7551 9.08885 18.5187 9.25161 18.3356C9.41437 18.1526 9.63864 18.0357 9.88189 18.007L9.99889 18H13.9989ZM11.9989 6C13.2582 6 14.4856 6.39622 15.5072 7.13255C16.5287 7.86887 17.2928 8.90796 17.691 10.1026C18.0892 11.2973 18.1015 12.587 17.726 13.789C17.3505 14.991 16.6063 16.0444 15.5989 16.8C15.4611 16.9035 15.2988 16.9697 15.1279 16.992L14.9989 17H8.99889C8.78252 17 8.57199 16.9298 8.39889 16.8C7.39146 16.0444 6.64729 14.991 6.27181 13.789C5.89633 12.587 5.90857 11.2973 6.30679 10.1026C6.70502 8.90796 7.46904 7.86887 8.49063 7.13255C9.51222 6.39622 10.7396 6 11.9989 6Z" fill="#999999"/>
</svg>
