<svg width="40" height="40" viewBox="0 0 40 40" fill="none" xmlns="http://www.w3.org/2000/svg">
<g clip-path="url(#clip0_2567_31354)">
<rect width="40" height="40" rx="20" fill="url(#paint0_linear_2567_31354)"/>
<circle cx="19.5" cy="20.5" r="12.5" fill="url(#paint1_linear_2567_31354)"/>
<rect width="40" height="40" rx="20" fill="black" fill-opacity="0.01"/>
<path d="M20.0078 9C26.0829 9 31.0078 13.9249 31.0078 20C31.0078 26.0751 26.0829 31 20.0078 31C13.9327 31 9.00781 26.0751 9.00781 20C9.00781 13.9249 13.9327 9 20.0078 9ZM20.0078 15.125C19.5246 15.125 19.1328 15.5168 19.1328 16V19.125H16.0078C15.5246 19.125 15.1328 19.5168 15.1328 20C15.1328 20.4832 15.5246 20.875 16.0078 20.875H19.1328V24C19.1328 24.4832 19.5246 24.875 20.0078 24.875C20.4911 24.875 20.8828 24.4832 20.8828 24V20.875H24.0078C24.4911 20.875 24.8828 20.4832 24.8828 20C24.8828 19.5168 24.4911 19.125 24.0078 19.125H20.8828V16C20.8828 15.5168 20.4911 15.125 20.0078 15.125Z" fill="white"/>
<g clip-path="url(#paint2_diamond_2567_31354_clip_path)" data-figma-skip-parse="true"><g transform="matrix(0.0153333 0.0193333 -0.0193333 0.0153333 10.6667 5.33333)"><rect x="0" y="0" width="1782.48" height="1154.74" fill="url(#paint2_diamond_2567_31354)" opacity="0.5" shape-rendering="crispEdges"/><rect x="0" y="0" width="1782.48" height="1154.74" transform="scale(1 -1)" fill="url(#paint2_diamond_2567_31354)" opacity="0.5" shape-rendering="crispEdges"/><rect x="0" y="0" width="1782.48" height="1154.74" transform="scale(-1 1)" fill="url(#paint2_diamond_2567_31354)" opacity="0.5" shape-rendering="crispEdges"/><rect x="0" y="0" width="1782.48" height="1154.74" transform="scale(-1)" fill="url(#paint2_diamond_2567_31354)" opacity="0.5" shape-rendering="crispEdges"/></g></g><circle cx="20" cy="20" r="18" data-figma-gradient-fill="{&#34;type&#34;:&#34;GRADIENT_DIAMOND&#34;,&#34;stops&#34;:[{&#34;color&#34;:{&#34;r&#34;:1.0,&#34;g&#34;:1.0,&#34;b&#34;:1.0,&#34;a&#34;:1.0},&#34;position&#34;:0.0},{&#34;color&#34;:{&#34;r&#34;:1.0,&#34;g&#34;:1.0,&#34;b&#34;:1.0,&#34;a&#34;:0.0},&#34;position&#34;:1.0}],&#34;stopsVar&#34;:[{&#34;color&#34;:{&#34;r&#34;:1.0,&#34;g&#34;:1.0,&#34;b&#34;:1.0,&#34;a&#34;:1.0},&#34;position&#34;:0.0},{&#34;color&#34;:{&#34;r&#34;:1.0,&#34;g&#34;:1.0,&#34;b&#34;:1.0,&#34;a&#34;:0.0},&#34;position&#34;:1.0}],&#34;transform&#34;:{&#34;m00&#34;:30.666666030883789,&#34;m01&#34;:-38.666667938232422,&#34;m02&#34;:14.666668891906738,&#34;m10&#34;:38.666667938232422,&#34;m11&#34;:30.666666030883789,&#34;m12&#34;:-29.333333969116211},&#34;opacity&#34;:0.50,&#34;blendMode&#34;:&#34;NORMAL&#34;,&#34;visible&#34;:true}"/>
</g>
<defs>
<clipPath id="paint2_diamond_2567_31354_clip_path"><circle cx="20" cy="20" r="18"/></clipPath><linearGradient id="paint0_linear_2567_31354" x1="1.75" y1="2.25" x2="40" y2="40" gradientUnits="userSpaceOnUse">
<stop stop-color="#C097FC"/>
<stop offset="0.5" stop-color="#668AF1"/>
<stop offset="1" stop-color="#6EDFFA"/>
</linearGradient>
<linearGradient id="paint1_linear_2567_31354" x1="19.5" y1="8" x2="19.5" y2="33" gradientUnits="userSpaceOnUse">
<stop stop-color="#C097FC"/>
<stop offset="0.543269" stop-color="#668AF1"/>
<stop offset="1" stop-color="#6EDFFA"/>
</linearGradient>
<linearGradient id="paint2_diamond_2567_31354" x1="0" y1="0" x2="500" y2="500" gradientUnits="userSpaceOnUse">
<stop stop-color="white"/>
<stop offset="1" stop-color="white" stop-opacity="0"/>
</linearGradient>
<clipPath id="clip0_2567_31354">
<rect width="40" height="40" rx="20" fill="white"/>
</clipPath>
</defs>
</svg>
