<svg width="24" height="24" viewBox="0 0 24 24" fill="none" xmlns="http://www.w3.org/2000/svg">
<path d="M10.6621 2.02812L2.96206 7.93815C2.41957 8.35453 2.10156 8.9995 2.10156 9.68335V21.9C2.10156 22.5075 2.59405 23 3.20156 23H7.60156C8.20908 23 8.70156 22.5075 8.70156 21.9V16.4C8.70156 15.7925 9.19405 15.3 9.80156 15.3H14.2016C14.8091 15.3 15.3016 15.7925 15.3016 16.4V21.9C15.3016 22.5075 15.794 23 16.4016 23H20.8016C21.4091 23 21.9016 22.5075 21.9016 21.9V9.68335C21.9016 8.9995 21.5836 8.35453 21.0411 7.93815L13.3411 2.02812C12.551 1.42172 11.4521 1.42172 10.6621 2.02812Z" fill="#3C518E"/>
</svg>
