<svg width="12" height="12" viewBox="0 0 12 12" fill="none" xmlns="http://www.w3.org/2000/svg">
<g clip-path="url(#clip0_2144_60300)">
<path d="M10.7251 4.25C10.7251 3.95445 10.6668 3.66171 10.5537 3.38867C10.4406 3.11562 10.2745 2.86764 10.0654 2.65869C9.85653 2.44972 9.60842 2.28353 9.33545 2.17041C9.06241 2.05728 8.76967 1.99903 8.47412 1.99902C8.17856 1.99902 7.88584 2.05727 7.61279 2.17041C7.33981 2.28352 7.09172 2.44923 6.88281 2.6582L6.35254 3.18848C6.15727 3.3837 5.84076 3.38372 5.64551 3.18848L5.11572 2.65869C4.69364 2.23661 4.12083 1.99951 3.52393 1.99951C2.92707 1.99955 2.35466 2.23665 1.93262 2.65869C1.51061 3.08076 1.27344 3.65314 1.27344 4.25C1.27345 4.84686 1.51058 5.41925 1.93262 5.84131L5.99902 9.90771L10.0654 5.84131L10.1421 5.76123C10.3154 5.57006 10.4547 5.35022 10.5537 5.11133C10.6668 4.8383 10.7251 4.54554 10.7251 4.25ZM11.7251 4.25C11.7251 4.6769 11.641 5.09975 11.4775 5.49414C11.3141 5.88848 11.0744 6.24656 10.7725 6.54834L6.35254 10.9683C6.15728 11.1635 5.84077 11.1635 5.64551 10.9683L1.22559 6.54834C0.616016 5.93875 0.273454 5.11208 0.273438 4.25C0.273438 3.38788 0.615972 2.56079 1.22559 1.95117C1.83515 1.34168 2.66192 0.999553 3.52393 0.999512C4.38603 0.999512 5.21314 1.34159 5.82275 1.95117L5.99902 2.12744L6.17529 1.95117C6.47708 1.64926 6.83562 1.40999 7.22998 1.24658C7.62439 1.08316 8.0472 0.999023 8.47412 0.999023C8.90103 0.999028 9.32387 1.08316 9.71826 1.24658C10.1125 1.40995 10.4707 1.64937 10.7725 1.95117C11.0744 2.25298 11.3141 2.61145 11.4775 3.00586C11.641 3.40026 11.7251 3.82308 11.7251 4.25Z" fill="#333333"/>
</g>
<defs>
<clipPath id="clip0_2144_60300">
<rect width="12" height="12" fill="white"/>
</clipPath>
</defs>
</svg>
