<svg width="24" height="24" viewBox="0 0 24 24" fill="none" xmlns="http://www.w3.org/2000/svg">
<path d="M17 2C19.7614 2 22 4.23858 22 7V17C22 19.7614 19.7614 22 17 22H7C4.23858 22 2 19.7614 2 17V7C2 4.23858 4.23858 2 7 2H17ZM12.7148 7.17773C11.7007 7.0274 10.6649 7.20067 9.75488 7.67285C8.84472 8.14512 8.10651 8.89268 7.64551 9.80859C7.18463 10.7244 7.02367 11.7622 7.18652 12.7744C7.34943 13.7868 7.82768 14.7222 8.55273 15.4473C9.2778 16.1723 10.2132 16.6506 11.2256 16.8135C12.2378 16.9763 13.2756 16.8154 14.1914 16.3545C15.1073 15.8935 15.8549 15.1553 16.3271 14.2451C16.7993 13.3351 16.9726 12.2993 16.8223 11.2852C16.6688 10.2505 16.1869 9.29232 15.4473 8.55273C14.7077 7.81315 13.7495 7.33116 12.7148 7.17773ZM10.5605 9.22656C11.1439 8.92388 11.8079 8.81285 12.458 8.90918C13.1212 9.00753 13.7359 9.31595 14.21 9.79004C14.6841 10.2641 14.9925 10.8788 15.0908 11.542C15.1872 12.1921 15.0761 12.8561 14.7734 13.4395C14.4708 14.0226 13.9921 14.4955 13.4053 14.791C12.8182 15.0865 12.1528 15.1893 11.5039 15.085C10.855 14.9805 10.2548 14.6747 9.79004 14.21C9.32526 13.7452 9.01946 13.145 8.91504 12.4961C8.8107 11.8472 8.91352 11.1818 9.20898 10.5947C9.50446 10.0079 9.97737 9.52924 10.5605 9.22656ZM17.5 5.5C16.9477 5.5 16.5 5.94772 16.5 6.5C16.5 7.05228 16.9477 7.5 17.5 7.5C18.0523 7.5 18.5 7.05228 18.5 6.5C18.5 5.94772 18.0523 5.5 17.5 5.5Z" fill="white"/>
</svg>
