<svg width="24" height="24" viewBox="0 0 24 24" fill="none" xmlns="http://www.w3.org/2000/svg">
<path d="M7.25 21.25H3.25V9.25H7.25V21.25ZM15.25 8.25C16.8413 8.25 18.367 8.88261 19.4922 10.0078C20.6174 11.133 21.25 12.6587 21.25 14.25V21.25H17.25V14.25C17.25 13.7196 17.0391 13.211 16.6641 12.8359C16.289 12.4609 15.7804 12.25 15.25 12.25C14.7196 12.25 14.211 12.4609 13.8359 12.8359C13.4609 13.211 13.25 13.7196 13.25 14.25V21.25H9.25V14.25C9.25002 12.6587 9.88261 11.133 11.0078 10.0078C12.133 8.88261 13.6587 8.25 15.25 8.25ZM5.25 2.74902C6.63071 2.74902 7.75 3.86831 7.75 5.24902C7.75 6.62974 6.63071 7.74902 5.25 7.74902C3.86929 7.74902 2.75 6.62974 2.75 5.24902C2.75 3.86831 3.86929 2.74902 5.25 2.74902Z" fill="white"/>
</svg>
