<svg width="33" height="33" viewBox="0 0 33 33" fill="none" xmlns="http://www.w3.org/2000/svg">
<path d="M13.2061 5.59912C14.6384 3.26216 17.6942 2.52924 20.0312 3.96143C22.3681 5.39365 23.1018 8.44861 21.6699 10.7856L20.1641 13.2437H20.1855C19.3144 14.7539 20.5848 16.5992 22.3066 16.3247L22.6279 16.2729C22.8677 16.227 23.1124 16.1934 23.3613 16.1733C27.0521 15.8765 30.2852 18.6281 30.582 22.3188C30.8787 26.0094 28.1271 29.2417 24.4365 29.5386C21.4841 29.776 18.8262 28.0623 17.7285 25.478L17.7236 25.481L17.5488 25.0591C16.8044 23.2625 14.4247 23.001 13.2832 24.4692L11.6172 27.1899C10.1848 29.5267 7.12902 30.2598 4.79199 28.8276C2.45518 27.3953 1.72215 24.3395 3.1543 22.0024L13.2061 5.59912Z" fill="white"/>
</svg>
