<svg width="12" height="12" viewBox="0 0 12 12" fill="none" xmlns="http://www.w3.org/2000/svg">
<g clip-path="url(#clip0_1731_47174)">
<path fill-rule="evenodd" clip-rule="evenodd" d="M7.87912 0.551023C7.3011 0.235738 6.5829 0.352287 6.13424 0.834178L4.02114 3.10381C3.97654 3.15171 3.94897 3.18132 3.92229 3.21123C3.70438 3.45554 3.52059 3.72597 3.3744 4.01504H2.38216C1.71769 4.01504 1.12225 4.42538 0.885707 5.04632C0.372214 6.39424 0.360901 7.88193 0.853837 9.2375L0.879843 9.30902C1.11584 9.95802 1.73264 10.39 2.42321 10.39H3.86713C4.25517 10.7219 4.75147 10.9271 5.29023 10.9495L7.90697 11.0585C8.24125 11.0725 8.51923 11.0841 8.74929 11.0766C8.98981 11.0688 9.21262 11.0398 9.43168 10.9548C9.77501 10.8217 10.0749 10.5963 10.2983 10.3035C10.4408 10.1167 10.5306 9.91077 10.605 9.68191C10.6762 9.46301 10.7424 9.19277 10.8219 8.8678L11.2579 7.08761C11.3567 6.68424 11.4387 6.34961 11.4807 6.07503C11.5241 5.79169 11.5355 5.51491 11.4503 5.24266C11.3228 4.8349 11.0505 4.48788 10.6848 4.26702C10.4406 4.11955 10.1691 4.06471 9.88352 4.03948C9.6068 4.01502 9.26231 4.01503 8.84698 4.01504L7.86167 4.01504L8.52711 2.35145C8.79816 1.67381 8.51985 0.900509 7.87912 0.551023ZM6.86614 1.5156C7.00348 1.36808 7.22333 1.3324 7.40027 1.42892C7.59641 1.5359 7.6816 1.77262 7.59863 1.98006L6.65892 4.32934C6.5973 4.48339 6.61611 4.65797 6.70912 4.79535C6.80213 4.93274 6.95724 5.01504 7.12315 5.01504H8.82426C9.26808 5.01504 9.56807 5.0155 9.7955 5.03559C10.0191 5.05536 10.114 5.09051 10.1678 5.12303C10.3245 5.21768 10.4412 5.36641 10.4959 5.54116C10.5147 5.6012 10.5263 5.70167 10.4923 5.92359C10.4577 6.14926 10.3868 6.44075 10.2812 6.87184L9.85498 8.61225C9.76996 8.95941 9.71234 9.19335 9.65402 9.37275C9.59765 9.54614 9.5508 9.63467 9.50334 9.69686C9.39164 9.84324 9.24169 9.95593 9.07003 10.0225C8.99709 10.0508 8.89903 10.0712 8.7168 10.0771C8.52826 10.0832 8.28752 10.0735 7.93041 10.0587L5.33186 9.95038C4.71678 9.92476 4.19838 9.48316 4.07529 8.87999C3.86273 7.83848 3.82023 6.76942 3.94942 5.71432L3.98248 5.44437C3.99136 5.37187 3.99494 5.34279 3.99896 5.31495C4.07605 4.78023 4.30895 4.28005 4.66856 3.87687C4.68728 3.85588 4.70723 3.83442 4.757 3.78096L6.86614 1.5156ZM3.18121 9.39004C3.14595 9.28986 3.1172 9.18634 3.09548 9.07995C2.86134 7.93266 2.81452 6.75503 2.95684 5.59278L2.9906 5.31705C2.99855 5.2521 3.00347 5.21192 3.00919 5.17225C3.01679 5.11959 3.02549 5.06717 3.03528 5.01504H2.38216C2.13263 5.01504 1.90903 5.16914 1.82019 5.40232C1.39219 6.52584 1.38276 7.76586 1.79363 8.89576L1.81964 8.96728C1.91193 9.22108 2.15314 9.39004 2.42321 9.39004H3.18121Z" fill="#333333"/>
</g>
<defs>
<clipPath id="clip0_1731_47174">
<rect width="12" height="12" fill="white"/>
</clipPath>
</defs>
</svg>
