<svg width="16" height="16" viewBox="0 0 16 16" fill="none" xmlns="http://www.w3.org/2000/svg">
<path d="M8.00293 1C8.26795 1.00009 8.52252 1.10561 8.70996 1.29297L12.0439 4.62598C12.4341 5.01635 12.4339 5.64953 12.0439 6.04004C11.6535 6.43051 11.0204 6.4304 10.6299 6.04004L9.00293 4.41309V9.33301H14.0029C14.3711 9.33301 14.6699 9.63181 14.6699 10V12.667C14.6698 13.1973 14.459 13.7061 14.084 14.0811C13.709 14.456 13.2002 14.6669 12.6699 14.667H3.33594C2.80562 14.6669 2.29687 14.4561 1.92188 14.0811C1.54688 13.7061 1.33602 13.1973 1.33594 12.667V10C1.33594 9.63181 1.63474 9.33301 2.00293 9.33301H7.00293V4.41406L5.37695 6.04004C4.98648 6.43051 4.35343 6.4304 3.96289 6.04004C3.57253 5.6495 3.57242 5.01645 3.96289 4.62598L7.2959 1.29297C7.48334 1.10561 7.73791 1.00009 8.00293 1Z" fill="white"/>
</svg>
